<svg id="Layer_1" enable-background="new 0 0 512 512" height="512" viewBox="0 0 512 512" width="512" xmlns="http://www.w3.org/2000/svg"><g><g clip-rule="evenodd" fill-rule="evenodd"><path d="m76.002 10v420.436h319.997 22.111c9.84 0 17.891-8.05 17.891-17.891v-384.654c-.001-9.84-8.051-17.891-17.891-17.891z" fill="#ff764e"/><path d="m76.002 430.436v-420.436h-4.22c-19.679 0-35.782 16.102-35.782 35.782v420.436c0-19.681 16.101-35.782 35.781-35.782z" fill="#6d91ac"/><path d="m395.999 430.436h-319.997-4.22c-19.68 0-35.781 16.101-35.781 35.782-.001 19.681 16.102 35.782 35.781 35.782h324.217z" fill="#fff"/><path d="m395.999 430.436v71.564h22.111c9.84 0 17.891-8.051 17.891-17.891v-71.563c0 9.84-8.05 17.891-17.891 17.891h-22.111z" fill="#ff9171"/><path d="m436 27.891v60h30c5.5 0 10-4.5 10-10v-40c0-5.5-4.5-10-10-10z" fill="#ff5d7d"/><path d="m466 127.892h-30v60h30c5.5 0 10-4.5 10-10v-40.001c0-5.499-4.5-9.999-10-9.999z" fill="#ffc144"/><path d="m466 227.894h-30v60h30c5.5 0 10-4.5 10-10v-40.001c0-5.499-4.5-9.999-10-9.999z" fill="#88df8e"/><path d="m466 327.895h-30v60h30c5.5 0 10-4.5 10-10v-40c0-5.5-4.5-10-10-10z" fill="#60a4ff"/><path d="m306.001 200.004c11 0 20-9 20-20v-40c0-11-9-20-20-20h-100c-11 0-20 9-20 20v40c0 11 9 20 20 20z" fill="#fff"/><path d="m326.001 180.004c0 11-9 20-20 20h-100c-11 0-20-9-20-20v-40c0-11 9-20 20-20h100c11 0 20 9 20 20zm49.997-110.002h-239.994v300.432h239.994z" fill="#ff9171"/></g><g><path d="m466 97.892c11.028 0 20-8.972 20-20v-40.001c0-11.028-8.972-20-20-20h-21.861c-4.03-10.453-14.174-17.891-26.03-17.891h-346.328c-25.244 0-45.781 20.538-45.781 45.782v420.436c0 25.244 20.537 45.782 45.781 45.782h346.328c15.379 0 27.891-12.512 27.891-27.891v-86.214h20c11.028 0 20-8.972 20-20v-40c0-11.028-8.972-20-20-20h-20v-20.001h20c11.028 0 20-8.972 20-20v-40.001c0-11.028-8.972-20-20-20h-20v-20.001h20c11.028 0 20-8.972 20-20v-40c0-11.028-8.972-20-20-20h-20v-20zm0-20h-20v-40.001h20zm-420 388.326c0-14.216 11.565-25.781 25.781-25.781h314.218v51.563h-314.218c-14.216 0-25.781-11.565-25.781-25.782zm380 17.891c0 4.351-3.54 7.891-7.891 7.891h-12.11v-51.563h12.11c2.739 0 5.388-.397 7.891-1.137zm0-71.563c0 4.351-3.54 7.891-7.891 7.891h-332.107v-155.194c0-5.522-4.478-10-10-10s-10 4.478-10 10v155.563c-7.348.93-14.16 3.602-20.002 7.597v-382.621c0-12.229 8.561-22.489 20.002-25.121v154.582c0 5.522 4.478 10 10 10s10-4.478 10-10v-155.243h332.107c4.351 0 7.891 3.54 7.891 7.891zm40-74.65v40h-20v-40zm0-100.002v40.001h-20v-40.001zm0-100.001v40h-20v-40z"/><path d="m375.998 60.002h-239.994c-5.522 0-10 4.478-10 10v300.433c0 5.522 4.478 10 10 10h239.994c5.522 0 10-4.478 10-10v-300.433c0-5.523-4.477-10-10-10zm-10 300.433h-219.994v-280.433h219.994z"/><path d="m206.001 210.004h100c16.542 0 30-13.458 30-30v-40c0-16.542-13.458-30-30-30h-100c-16.542 0-30 13.458-30 30v40c0 16.542 13.458 30 30 30zm-10-70c0-5.514 4.486-10 10-10h100c5.514 0 10 4.486 10 10v40c0 5.514-4.486 10-10 10h-100c-5.514 0-10-4.486-10-10z"/><path d="m186.001 330.433h140c5.522 0 10-4.478 10-10s-4.478-10-10-10h-140c-5.522 0-10 4.478-10 10s4.478 10 10 10z"/><path d="m186.001 290.431h140c5.522 0 10-4.478 10-10s-4.478-10-10-10h-140c-5.522 0-10 4.478-10 10s4.478 10 10 10z"/><path d="m76.002 210.243c-5.522 0-10 4.481-10 10.004s4.478 10 10 10 10-4.478 10-10v-.008c0-5.522-4.478-9.996-10-9.996z"/></g></g></svg>