<svg id="Layer_1" enable-background="new 0 0 512 512" height="512" viewBox="0 0 512 512" width="512" xmlns="http://www.w3.org/2000/svg"><g id="XMLID_1153_"><path id="XMLID_1874_" d="m52 350.03h-8.542c-18.478 0-33.458-14.98-33.458-33.458v-253.084c0-18.478 14.98-33.458 33.458-33.458h425.084c18.478 0 33.458 14.98 33.458 33.458v253.084c0 18.478-14.98 33.458-33.458 33.458h-6.542z" fill="#ffda8f"/><path id="XMLID_1086_" d="m92 394.03c-45.287 0-82 36.713-82 82v6h164v-6c0-45.287-36.713-82-82-82z" fill="#33d6f5"/><path id="XMLID_1085_" d="m256 394.03c-45.287 0-82 36.713-82 82v6h164v-6c0-45.287-36.713-82-82-82z" fill="#ff7d97"/><path id="XMLID_1084_" d="m420 394.03c-45.287 0-82 36.713-82 82v6h164v-6c0-45.287-36.713-82-82-82z" fill="#ffcd69"/><path id="XMLID_1083_" d="m92 306.03c-22.091 0-40 17.909-40 40v8c0 22.091 17.909 40 40 40 22.091 0 40-17.909 40-40v-8c0-22.091-17.909-40-40-40z" fill="#6d92ac"/><path id="XMLID_1082_" d="m256.127 306.03c-22.091 0-40 17.909-40 40v8c0 22.091 17.909 40 40 40 22.091 0 40-17.909 40-40v-8c0-22.091-17.909-40-40-40z" fill="#ffcd69"/><path id="XMLID_1081_" d="m420.254 306.03c-22.091 0-40 17.909-40 40v8c0 22.091 17.909 40 40 40 22.091 0 40-17.909 40-40v-8c0-22.091-17.909-40-40-40z" fill="#6d92ac"/><g id="XMLID_452_"><path id="XMLID_957_" d="m469.885 359.996c23.343-.714 42.115-19.912 42.115-43.424v-253.084c0-23.963-19.495-43.458-43.458-43.458h-167.479c-5.522 0-10 4.477-10 10s4.478 10 10 10h167.479c12.935 0 23.458 10.523 23.458 23.458v253.084c0 12.487-9.808 22.723-22.124 23.417-2.993-24.73-24.097-43.959-49.622-43.959-25.539 0-46.652 19.25-49.627 44h-64.872c-2.975-24.75-24.089-44-49.627-44s-46.652 19.25-49.627 44h-64.872c-2.975-24.75-24.089-44-49.627-44-25.529 0-46.636 19.236-49.624 43.973-12.436-.568-22.378-10.859-22.378-23.431v-253.084c0-12.935 10.523-23.458 23.458-23.458h167.605c5.522 0 10-4.477 10-10s-4.478-10-10-10h-167.605c-23.963 0-43.458 19.495-43.458 43.458v253.084c0 23.598 18.909 42.849 42.369 43.43 1.437 12.009 7.141 22.72 15.557 30.572-33.909 13.57-57.926 46.759-57.926 85.456v6c0 5.523 4.478 10 10 10h492c5.522 0 10-4.477 10-10v-6c0-38.629-23.933-71.769-57.748-85.383 8.459-7.859 14.194-18.602 15.633-30.651zm-79.631-13.966c0-16.542 13.458-30 30-30s30 13.458 30 30v8c0 16.542-13.458 30-30 30s-30-13.458-30-30zm-100.091 44.581c8.43-7.849 14.147-18.564 15.591-30.581h64.872c1.438 11.961 7.11 22.633 15.477 30.472-20.849 8.292-37.973 23.996-48.104 43.841-10.086-19.76-27.108-35.412-47.836-43.732zm-64.036-44.581c0-16.542 13.458-30 30-30s30 13.458 30 30v8c0 16.542-13.458 30-30 30s-30-13.458-30-30zm-4.112 44.508c-20.808 8.301-37.899 23.988-48.015 43.805-10.101-19.789-27.158-35.458-47.926-43.769 8.409-7.846 14.111-18.547 15.553-30.545h64.873c1.44 11.981 7.127 22.667 15.515 30.509zm-160.015-36.508v-8c0-16.542 13.458-30 30-30s30 13.458 30 30v8c0 16.542-13.458 30-30 30s-30-13.458-30-30zm-41.891 118c2.083-37.847 33.532-68 71.891-68s69.808 30.153 71.891 68zm164 0c2.083-37.847 33.532-68 71.891-68s69.808 30.153 71.891 68zm307.782 0h-143.782c2.083-37.847 33.532-68 71.891-68s69.808 30.153 71.891 68z"/><path id="XMLID_1515_" d="m151.855 98.03c-5.522 0-10 4.477-10 10v16.127h-16.755c-5.522 0-10 4.477-10 10s4.478 10 10 10h16.756v16.756c0 5.523 4.478 10 10 10s10-4.477 10-10v-16.756h16.127c5.522 0 10-4.477 10-10s-4.478-10-10-10h-16.127v-16.127c-.001-5.523-4.478-10-10.001-10z"/><path id="XMLID_1623_" d="m81.1 191.609c5.522 0 10-4.477 10-10v-80c0-5.523-4.478-10-10-10h-17.1c-5.522 0-10 4.477-10 10s4.478 10 10 10h7.1v70c0 5.523 4.477 10 10 10z"/><path id="XMLID_1852_" d="m194.884 101.609c0 5.523 4.478 10 10 10h7.099v70c0 5.523 4.478 10 10 10s10-4.477 10-10v-80c0-5.523-4.478-10-10-10h-17.099c-5.523 0-10 4.477-10 10z"/><path id="XMLID_1853_" d="m288.333 184.03h159.667c5.522 0 10-4.477 10-10s-4.478-10-10-10h-159.667c-5.522 0-10 4.477-10 10s4.478 10 10 10z"/><path id="XMLID_1921_" d="m288.333 116.03h159.667c5.522 0 10-4.477 10-10s-4.478-10-10-10h-159.667c-5.522 0-10 4.477-10 10s4.478 10 10 10z"/><path id="XMLID_1922_" d="m64 252.03h384c5.522 0 10-4.477 10-10s-4.478-10-10-10h-384c-5.522 0-10 4.477-10 10s4.478 10 10 10z"/><path id="XMLID_1923_" d="m256.06 39.97c2.63 0 5.21-1.07 7.07-2.93 1.87-1.86 2.93-4.44 2.93-7.07 0-2.64-1.06-5.21-2.93-7.07-1.86-1.87-4.43-2.93-7.07-2.93-2.63 0-5.21 1.06-7.069 2.93-1.86 1.86-2.931 4.43-2.931 7.07 0 2.63 1.07 5.21 2.931 7.07 1.859 1.86 4.439 2.93 7.069 2.93z"/></g></g></svg>